<?xml version="1.0" encoding="UTF-8"?>
<svg id="Layer_1" data-name="Layer 1" xmlns="http://www.w3.org/2000/svg" viewBox="0 0 99.5 37.69">
  <defs>
    <style>
      .cls-1 {
        fill: #fff;
      }
    </style>
  </defs>
  <path class="cls-1" d="M42.62,30.79l-2.64,6.9h1.45l.56-1.66h2.71l.59,1.66h1.49l-2.72-6.9h-1.45ZM42.41,34.89l.92-2.52.94,2.52h-1.85Z"/>
  <path class="cls-1" d="M54.46,35.08h1.57v.86c-.21.16-.45.3-.74.41-.29.11-.58.17-.86.17-.58,0-1.05-.2-1.41-.6-.36-.4-.54-1.01-.54-1.81,0-.75.18-1.31.53-1.69.35-.38.83-.57,1.43-.57.39,0,.72.1.99.29.26.19.44.46.54.79l1.36-.25c-.14-.62-.44-1.11-.91-1.47-.47-.35-1.13-.53-1.97-.53-.65,0-1.19.11-1.62.34-.57.29-1.01.71-1.3,1.26-.3.55-.44,1.18-.44,1.88,0,.65.13,1.25.4,1.81.26.55.66.98,1.19,1.28.53.3,1.15.45,1.86.45.56,0,1.11-.11,1.65-.32s.96-.46,1.25-.73v-2.7h-2.95v1.14Z"/>
  <polygon class="cls-1" points="63.84 34.58 67.25 34.58 67.25 33.44 63.84 33.44 63.84 31.94 67.5 31.94 67.5 30.79 62.47 30.79 62.47 37.69 67.63 37.69 67.63 36.43 63.84 36.43 63.84 34.58"/>
  <polygon class="cls-1" points="76.71 35.32 73.93 30.79 72.6 30.79 72.6 37.69 73.87 37.69 73.87 33.15 76.61 37.69 77.98 37.69 77.98 30.79 76.71 30.79 76.71 35.32"/>
  <path class="cls-1" d="M87,36.17c-.26.23-.58.35-.94.35-.49,0-.89-.18-1.2-.55-.31-.36-.46-.98-.46-1.83,0-.81.16-1.39.47-1.75s.72-.54,1.22-.54c.36,0,.67.1.93.3.26.2.42.48.5.83l1.36-.32c-.15-.54-.39-.96-.69-1.25-.52-.49-1.19-.74-2.02-.74-.95,0-1.72.31-2.3.94-.58.62-.87,1.5-.87,2.63,0,1.07.29,1.91.87,2.52.58.62,1.32.92,2.22.92.73,0,1.33-.18,1.8-.54s.81-.91,1.02-1.65l-1.33-.42c-.11.5-.3.86-.56,1.09Z"/>
  <polygon class="cls-1" points="96.36 33.47 94.76 30.79 93.15 30.79 95.64 34.72 95.64 37.69 97 37.69 97 34.73 99.5 30.79 97.92 30.79 96.36 33.47"/>
  <path class="cls-1" d="M16.38,13.7l2.61,5.95s-.01.05-.04.08l-.04.04c-1.63,2-3.67,3-6.11,3-2.28,0-4.23-.89-5.83-2.66-1.61-1.78-2.41-3.92-2.41-6.44s.8-4.66,2.41-6.44c1.61-1.78,3.55-2.66,5.83-2.66,1.45,0,2.8.39,4.03,1.17s2.22,1.82,2.98,3.11h4.98c-.93-2.62-2.49-4.74-4.67-6.36S15.49.05,12.8.05C10.49.05,8.35.65,6.38,1.87c-1.97,1.22-3.53,2.87-4.67,4.96-1.14,2.09-1.71,4.36-1.71,6.83s.57,4.75,1.71,6.85c1.14,2.1,2.7,3.75,4.67,4.96s4.11,1.81,6.42,1.81c3.03,0,5.72-1.01,8.05-3.03.02,0,.04-.01.06-.04s.03-.04.06-.04l6.8,13.53h5.06l-11.43-23.99h-5.02Z"/>
  <path class="cls-1" d="M46.68,16.89c0-2.88-.96-5.33-2.88-7.35-1.92-2.02-4.23-3.03-6.92-3.03s-5.01,1.01-6.92,3.03c-1.92,2.02-2.88,4.47-2.88,7.35s.96,5.33,2.88,7.35c1.92,2.02,4.23,3.03,6.92,3.03s5-1.01,6.92-3.03,2.88-4.47,2.88-7.35ZM31.35,11.37c.29-.44.7-.64,1.17-.71,1.3-.19,3.08.7,4.2.76,1.42.07,3.69-1.29,5.07-.58.15.08.3.18.42.31.06.06.1.13.15.2,1.07,1.48.04,4.44-1.97,4.23-.15-.01-.66-.18-.65-.35,0-.03.03-.08.05-.08h.56c.06,0,.33-.1.4-.13.84-.37,1.19-1.53.89-2.36-.02-.06-.03-.12-.11-.13-.18-.02-.28.37-.65.26-.54-.15-.61-.12-1.16.02-1.52.39-2.34.77-4,.48-.69-.12-2.14-.72-2.71-.58-.2.05-.27.19-.5.05-.18-.11-.34-.43-.46-.05-.22.74-.02,1.61.58,2.1.13.11.54.33.69.33.13,0,.51-.03.6,0,.03,0,.05.05.05.08.02.16-.48.33-.62.34-1.75.21-2.74-1.93-2.33-3.5.07-.25.16-.49.31-.7ZM32.15,22.05c-.18-.36-.19-.78-.18-1,.03-1.25.37-2.44,1.24-3.35.34-.36.94-.75,1.08-1.23.05-.17.04-.41.16-.54.71-.41,1.38-.92,2.08-1.32.08-.05.2-.13.29-.15.13-.02.24.07.35.13.71.4,1.39.92,2.1,1.33.12.12.1.36.16.54.15.48.75.87,1.08,1.23.82.87,1.14,1.94,1.22,3.11.03.07.04.14.02.21.01.28.02.55-.22.91-.24.37-.75,1.92-4.68,1.91-3.93,0-4.53-1.44-4.71-1.8ZM34.17,14.23c-.19,0-.76-.26-.53-.5h1.12l.05.05c.02.27-.41.45-.64.44ZM38.92,13.78l.05-.05h1.12s.08.09.07.14c-.04.17-.43.36-.6.36-.23,0-.66-.17-.64-.44Z"/>
  <polygon class="cls-1" points="49.05 27.31 53.52 27.31 53.52 11.01 57.34 11.01 59.51 6.46 49.05 6.46 49.05 27.31"/>
  <rect class="cls-1" x="61.28" y="6.38" width="4.51" height="20.85"/>
  <path class="cls-1" d="M62.24,4.9c.4.23.85.35,1.34.35.7,0,1.31-.26,1.83-.78.52-.52.78-1.13.78-1.85s-.26-1.33-.78-1.85c-.52-.52-1.13-.78-1.85-.78s-1.33.26-1.85.78c-.52.52-.78,1.14-.78,1.87,0,.47.12.9.35,1.3.23.4.55.72.95.95Z"/>
  <rect class="cls-1" x="69.12" y=".08" width="4.47" height="27.23"/>
  <rect class="cls-1" x="76.9" y=".08" width="4.47" height="27.23"/>
  <path class="cls-1" d="M97.81,8.17c-1.13-1.14-2.5-1.71-4.1-1.71h-8l-2.15,4.55h10.15c.36,0,.67.12.91.37.25.25.37.54.37.88v.47h-4.16c-2,0-3.71.71-5.13,2.14-1.43,1.43-2.14,3.14-2.14,5.15s.71,3.72,2.14,5.13c1.43,1.41,3.14,2.12,5.13,2.12,1.5,0,2.89-.41,4.16-1.24v1.24h4.51v-15.01c0-1.58-.56-2.94-1.69-4.08ZM94.48,19.12c-.18.58-.42,1.17-.72,1.75-.3.58-.7,1.04-1.21,1.38-.51.34-1.08.51-1.73.51-.75,0-1.4-.27-1.95-.82s-.82-1.19-.82-1.95.27-1.39.82-1.93c.54-.53,1.19-.8,1.95-.8h4.04c-.08.65-.21,1.26-.39,1.85Z"/>
  <path class="cls-1" d="M37.21,17.1c.17-.09.74-.54.9-.69.18-.16.29-.29.14-.54-.06-.1-.22-.19-.33-.18-.13.01-.82.35-.87.46-.03.08-.03.76-.02.88.02.14.06.14.18.08Z"/>
  <path class="cls-1" d="M36.53,17.12h.13s.03-.06.03-.1c.01-.12.01-.8-.02-.88-.05-.12-.78-.47-.92-.46-.1,0-.23.09-.28.18-.15.25-.03.37.14.54.28.26.64.44.91.71Z"/>
  <path class="cls-1" d="M33.29,20.8s-.06.11-.03.16c.05.08.83.4.97.46,1.9.71,4.07.69,5.94-.14.14-.06.47-.2.58-.29.07-.05.07-.16,0-.18h-7.45Z"/>
</svg>