<?xml version="1.0" encoding="UTF-8"?>
<svg id="Layer_1" data-name="Layer 1" xmlns="http://www.w3.org/2000/svg" viewBox="0 0 63.95 63.95">
  <defs>
    <style>
      .cls-1 {
        fill: #231f20;
      }

      .cls-2 {
        fill: #fff;
      }
    </style>
  </defs>
  <circle class="cls-1" cx="31.98" cy="31.98" r="31.98"/>
  <path class="cls-2" d="M7.96,25.92c0,.12.05.24.11.35.9,1.6,2.71,2.43,2.79,2.46.22.1.48.1.7,0,.11-.05.22-.1.34-.14-.76,1.6-1.21,3.29-1.32,5.02-.2,3.1.67,6.15,2.59,9.08.25.39.78.5,1.16.24.39-.25.5-.78.24-1.16-2.8-4.27-3.1-8.89-.91-12.96.12-.22.39-.33.62-.24,1.1.42,2.39,1.53,3.82,3.92l.26.43c.58.97,1.17,1.95,1.8,2.9.15.23.1.53-.12.69-.37.28-.77.47-1.18.56-1.55.36-3.03-.67-3.31-.88-.37-.28-.9-.2-1.18.17-.28.37-.2.9.17,1.18.31.24,1.1.77,2.13,1.07.26.08.41.35.34.61-.08.32-.18.68-.27,1.08-.53,2.19-1.15,5.35-1.29,8.55-.01.27-.23.49-.5.49-.74,0-2.14,0-2.84,0-.24,0-.45-.17-.49-.41-.27-1.49-.64-4.4-.26-7.48.06-.46-.27-.88-.73-.94-.46-.06-.88.27-.94.73-.59,4.74.47,8.96.51,9.14.09.37.43.63.82.63h5.25c.47,0,.84-.38.84-.85,0-3.47.69-7.07,1.27-9.48.18-.75.35-1.37.47-1.8.02-.07.08-.12.15-.13,0,0,0,0,0,0,.11-.02.21.07.22.18.16,8.75,1.78,11.54,1.85,11.66.15.25.43.41.72.41h5.25c.38,0,.73-.26.82-.66.03-.14.02-.28-.02-.42-.78-2.89-.13-5.64.36-7.09.07-.21.3-.33.52-.27.51.14,1.05.26,1.61.36.66.11,1.31.16,1.96.16,2.83,0,5.47-.98,7.63-2.2.23-.13.53-.05.67.17.4.65.82,1.24,1.27,1.75.12.14.17.34.1.51-.84,2.3-2.12,4.6-4.03,5.94-.08.06-.18.09-.28.09-.42,0-1.61,0-2.43,0-.37,0-.62-.38-.46-.72.38-.8.77-1.84,1.09-3.15.11-.45-.17-.91-.62-1.02-.45-.11-.91.17-1.02.62-.78,3.21-2,4.51-2.01,4.52-.3.31-.32.82,0,1.16.17.18.41.27.65.27h5.21c.15,0,.3-.04.43-.12,2.18-1.36,3.67-3.65,4.68-6.03.13-.3.51-.4.77-.21,1.64,1.2,3.29,1.88,4.32,2.23.22.07.36.29.34.52l-.21,2.69c-.02.23.06.46.22.64.16.17.38.27.62.27h5.25c.37,0,.7-.25.81-.61.08-.27,1.88-6.6-.46-10.35-.07-.12-.17-.21-.29-.28-2.19-1.37-3.42-3.57-4.73-5.89-2.42-4.3-5.15-9.16-14.59-9.45-.16,0-.53,0-.82-.01-.25,0-.48-.12-.64-.31-1.46-1.74-3.21-3.11-5.41-3.82-.53-.17-1.07-.29-1.62-.37-.27-.04-.5-.2-.62-.44-2.25-4.44-5.46-6.64-7.46-7.64-2.2-1.1-3.84-1.39-5.03-.88-.71.3-1.22.88-1.46,1.67-.06.21-.32.48-.6.77-.5.53-1.2,1.26-1.46,2.42-.3,1.34-.01,3.2.17,4.13-2.57,2.15-2.31,5.85-2.3,6.01ZM44.24,42.75c-.15-.13-.21-.34-.15-.53.9-3.07,1.11-5.71,1.13-5.93,0-.02,0-.04,0-.06,0-.03,0-.07,0-.1,0-.03,0-.05-.02-.08,0-.03-.01-.05-.02-.08,0-.03-.02-.05-.03-.08-.01-.03-.02-.05-.03-.07-.01-.02-.03-.05-.05-.07-.02-.02-.03-.04-.05-.07-.02-.03-.05-.05-.07-.07-.01-.01-.03-.03-.04-.04,0,0,0,0,0,0-.03-.02-.06-.04-.09-.06-.02-.01-.03-.02-.05-.03-.02-.01-.05-.02-.08-.03-.03-.01-.05-.02-.08-.03-.02,0-.04,0-.06-.01-.03,0-.07-.02-.1-.02,0,0,0,0,0,0-.02,0-.04,0-.06,0-.03,0-.06,0-.09,0-.03,0-.05,0-.08.02-.03,0-.05.01-.08.02-.02,0-.05.02-.07.03-.03.01-.05.02-.08.04-.02.01-.04.03-.06.04-.03.02-.05.03-.08.05-.02.02-.04.04-.06.06-.02.02-.04.03-.05.05-.5.61-1.29,1.37-2.29,2.14-.25.2-.63.1-.76-.19-.52-1.11-1.03-2.32-1.56-3.55-1.05-2.49-2.17-5.14-3.59-7.47-.14-.23.04-.52.31-.51,7.92.45,10.14,4.4,12.48,8.57,1.33,2.36,2.7,4.79,5.15,6.4,1.34,2.35.8,6.06.42,7.83-.05.23-.26.4-.49.4h-2.73c-.29,0-.53-.25-.5-.54l.18-2.33c.03-.42-.25-.8-.66-.89-.03,0-2.91-.66-5.45-2.79ZM42.22,40.48c-.11-.17-.22-.34-.33-.52-.09-.15-.05-.34.09-.44.45-.33.86-.65,1.23-.97-.1.55-.22,1.17-.38,1.83-.07.29-.45.36-.61.11ZM22.76,36.51c-.13-.16-.14-.39-.04-.57.3-.51.77-1.4.87-1.61.16-.34.32-.68.48-1.02,1.57-3.41,3.06-6.65,8.6-7.17.31-.03.6.11.78.37,1.68,2.44,2.94,5.43,4.12,8.23.58,1.38,1.15,2.73,1.75,3.97.12.24.03.53-.21.66-2.44,1.38-5.47,2.38-8.52,1.87-3.69-.61-6-2.42-7.84-4.73ZM21.07,37.82s.02-.01.02-.02c.18-.14.45-.12.6.06,1.26,1.53,2.76,2.87,4.72,3.82.19.09.29.32.21.53-.48,1.37-1.08,3.79-.73,6.52.04.3-.19.57-.5.57h-2.72c-.22,0-.41-.14-.48-.34-.45-1.32-1.26-4.52-1.31-10.79,0-.14.07-.27.18-.35ZM15.41,27.22c-.31-.16-.39-.5-.16-.77,2.48-2.97,6-4.8,9.31-4.98.36-.02.69.2.82.54.31.8.58,1.66.81,2.59.12.48.62.76,1.1.59.41-.14.64-.6.53-1.03-.17-.67-.35-1.3-.56-1.91-.09-.26.15-.51.42-.43.04.01.09.03.13.04,1.37.45,2.56,1.22,3.6,2.21.2.19.09.52-.18.57-5.16.93-6.96,4.25-8.42,7.39-.06.12-.56,1.16-.92,1.92-.17.35-.67.38-.88.05-.41-.64-.8-1.31-1.2-1.97l-.26-.43c-1.31-2.18-2.69-3.65-4.14-4.39ZM11.66,20.96c.29-.2.43-.55.35-.9-.17-.7-.55-2.76-.29-3.91.16-.7.59-1.16,1.04-1.63.39-.42.8-.85.98-1.43.13-.42.35-.55.51-.62.39-.17,1.38-.28,3.61.84,1.66.83,4.25,2.59,6.24,6.04.12.21-.01.48-.25.5-3.79.41-7.7,2.61-10.33,6.06-.11.14-.21.28-.31.43-.14.2-.36.32-.6.35-.46.05-.92.17-1.39.35-.41-.24-1.14-.73-1.6-1.43,0-.72.1-3.35,2.04-4.65Z"/>
</svg>