<?xml version="1.0" encoding="UTF-8"?>
<svg id="Layer_1" data-name="Layer 1" xmlns="http://www.w3.org/2000/svg" viewBox="0 0 63.95 63.95">
  <defs>
    <style>
      .cls-1 {
        fill: #fff;
      }
    </style>
  </defs>
  <path class="cls-1" d="M.02,25.43c.01.16.06.32.14.46,1.2,2.14,3.61,3.23,3.71,3.28.3.13.64.13.93,0,.14-.07.29-.13.45-.19-1.01,2.13-1.61,4.38-1.76,6.67-.26,4.12.9,8.19,3.45,12.08.34.52,1.03.66,1.55.32.52-.34.66-1.03.32-1.55-3.73-5.68-4.12-11.83-1.21-17.25.16-.3.51-.44.83-.32,1.47.56,3.17,2.03,5.09,5.22l.34.57c.77,1.29,1.55,2.59,2.39,3.85.2.3.13.7-.16.92-.5.37-1.02.62-1.58.75-2.06.47-4.03-.9-4.4-1.18-.49-.37-1.2-.27-1.57.22-.37.49-.27,1.2.22,1.57.42.31,1.46,1.02,2.84,1.42.35.1.55.46.46.81-.11.42-.23.9-.36,1.44-.7,2.92-1.52,7.12-1.71,11.37-.02.36-.31.65-.67.65-.99,0-2.85,0-3.78,0-.32,0-.6-.23-.65-.55-.35-1.99-.85-5.85-.34-9.95.08-.61-.36-1.17-.97-1.25-.61-.07-1.17.36-1.25.97-.78,6.31.62,11.93.68,12.16.13.5.57.84,1.08.84h6.98c.62,0,1.12-.51,1.12-1.13,0-4.62.92-9.4,1.69-12.61.24-1,.46-1.82.62-2.39.03-.09.1-.16.2-.18,0,0,0,0,0,0,.15-.03.28.09.29.24.21,11.64,2.37,15.36,2.46,15.52.2.34.57.54.96.54h6.98c.51,0,.97-.34,1.09-.88.04-.18.03-.38-.02-.56-1.04-3.84-.18-7.5.48-9.43.1-.28.4-.44.69-.36.68.19,1.39.35,2.15.47.88.15,1.75.21,2.6.21,3.77,0,7.28-1.3,10.15-2.93.31-.18.7-.07.89.23.53.86,1.09,1.64,1.7,2.32.17.19.22.45.14.68-1.12,3.06-2.82,6.11-5.36,7.9-.11.08-.24.12-.37.12-.56,0-2.14,0-3.23,0-.49,0-.82-.51-.61-.96.5-1.06,1.02-2.45,1.45-4.19.15-.6-.22-1.21-.82-1.35-.6-.15-1.21.22-1.35.82-1.04,4.27-2.66,6-2.68,6.02-.4.41-.43,1.09-.01,1.54.22.24.54.36.87.36h6.93c.2,0,.4-.05.58-.16,2.9-1.8,4.88-4.86,6.22-8.03.17-.4.67-.54,1.03-.28,2.18,1.6,4.37,2.51,5.75,2.97.29.1.48.38.45.69l-.28,3.58c-.02.31.08.62.29.85.21.23.51.36.82.36h6.98c.5,0,.94-.33,1.07-.81.1-.36,2.51-8.78-.61-13.77-.1-.15-.23-.28-.38-.37-2.91-1.83-4.55-4.75-6.29-7.84-3.22-5.72-6.86-12.19-19.42-12.58-.22,0-.7-.01-1.09-.01-.33,0-.64-.15-.86-.41-1.94-2.31-4.27-4.14-7.2-5.09-.7-.23-1.42-.39-2.16-.5-.35-.05-.66-.27-.82-.59-3-5.91-7.26-8.84-9.93-10.17-2.92-1.46-5.11-1.84-6.69-1.17-.95.4-1.62,1.18-1.94,2.23-.09.28-.43.64-.79,1.03-.67.71-1.59,1.68-1.94,3.22-.4,1.78-.01,4.26.23,5.5C-.33,20.3,0,25.21.02,25.43ZM48.3,47.82c-.2-.17-.28-.45-.21-.71,1.2-4.08,1.48-7.6,1.5-7.89,0-.03,0-.05,0-.08,0-.04,0-.09,0-.13,0-.04-.01-.07-.02-.1,0-.04-.01-.07-.03-.11-.01-.03-.03-.07-.04-.1-.01-.03-.03-.07-.04-.1-.02-.03-.04-.06-.06-.09-.02-.03-.04-.06-.06-.09-.03-.03-.06-.06-.09-.09-.02-.02-.03-.04-.05-.05,0,0,0,0-.01,0-.04-.03-.08-.05-.12-.08-.02-.01-.04-.03-.07-.04-.03-.02-.07-.03-.1-.04-.03-.01-.07-.03-.1-.04-.03,0-.05,0-.08-.02-.05,0-.09-.02-.14-.02,0,0,0,0-.01,0-.03,0-.05,0-.08,0-.04,0-.08,0-.12,0-.04,0-.07.01-.11.02-.04,0-.07.01-.11.02-.03.01-.06.03-.1.04-.04.02-.07.03-.11.05-.03.02-.05.03-.08.05-.03.02-.07.04-.1.07-.03.02-.05.05-.07.07-.02.02-.05.04-.07.07-.67.81-1.72,1.83-3.04,2.85-.34.26-.83.14-1.02-.25-.7-1.48-1.38-3.09-2.07-4.73-1.4-3.32-2.88-6.84-4.77-9.94-.19-.31.05-.7.41-.68,10.54.6,13.49,5.85,16.61,11.4,1.76,3.14,3.59,6.38,6.85,8.51,1.78,3.12,1.06,8.06.56,10.42-.07.31-.34.53-.66.53h-3.63c-.39,0-.7-.33-.67-.72l.24-3.1c.04-.56-.33-1.06-.88-1.18-.04,0-3.87-.88-7.25-3.72ZM45.6,44.8c-.15-.22-.29-.46-.44-.7-.12-.2-.06-.45.12-.59.59-.43,1.14-.87,1.63-1.29-.13.73-.3,1.55-.51,2.43-.09.38-.6.47-.81.14ZM19.71,39.53c-.17-.22-.19-.51-.05-.75.4-.68,1.03-1.86,1.16-2.15.22-.45.43-.91.63-1.36,2.09-4.54,4.07-8.85,11.45-9.54.41-.04.8.15,1.03.49,2.23,3.25,3.91,7.23,5.48,10.95.78,1.84,1.53,3.63,2.33,5.28.15.32.04.71-.27.88-3.24,1.83-7.27,3.16-11.33,2.49-4.9-.81-7.98-3.22-10.43-6.29ZM17.46,41.26s.02-.02.03-.02c.25-.19.6-.16.79.08,1.68,2.03,3.68,3.82,6.28,5.08.26.13.38.43.29.7-.63,1.83-1.44,5.04-.97,8.68.05.4-.26.76-.66.76h-3.61c-.29,0-.54-.18-.64-.45-.6-1.75-1.67-6.01-1.75-14.35,0-.19.09-.36.24-.47ZM9.94,27.16c-.41-.21-.52-.67-.22-1.03,3.29-3.95,7.98-6.38,12.38-6.63.48-.03.92.26,1.1.71.41,1.06.77,2.2,1.08,3.44.16.63.83,1.01,1.46.79.55-.19.85-.8.7-1.36-.22-.89-.47-1.73-.75-2.54-.12-.34.2-.68.55-.57.06.02.12.04.17.05,1.83.59,3.41,1.62,4.8,2.94.27.25.12.7-.24.76-6.87,1.24-9.26,5.66-11.2,9.84-.08.17-.74,1.55-1.23,2.55-.23.47-.89.51-1.17.06-.54-.86-1.07-1.74-1.6-2.62l-.34-.57c-1.74-2.9-3.58-4.85-5.5-5.84ZM4.95,18.83c.39-.26.57-.74.46-1.19-.22-.93-.73-3.67-.38-5.2.21-.94.78-1.54,1.38-2.17.52-.55,1.06-1.13,1.3-1.9.17-.55.47-.74.68-.83.52-.22,1.84-.37,4.81,1.11,2.21,1.11,5.65,3.45,8.31,8.03.16.28-.02.64-.34.67-5.04.55-10.24,3.47-13.75,8.07-.14.19-.28.38-.42.57-.19.26-.48.43-.8.46-.61.07-1.22.22-1.85.47-.55-.32-1.52-.97-2.13-1.9-.01-.95.14-4.45,2.71-6.19Z"/>
</svg>