<?xml version="1.0" encoding="UTF-8"?>
<svg id="Layer_1" data-name="Layer 1" xmlns="http://www.w3.org/2000/svg" viewBox="0 0 142.09 37.77">
  <path d="M85.21,30.82l-2.64,6.9h1.45l.56-1.66h2.71l.59,1.66h1.49l-2.72-6.9h-1.45ZM85.01,34.93l.92-2.52.94,2.52h-1.85Z"/>
  <path d="M97.05,35.11h1.57v.86c-.21.16-.45.3-.74.41-.29.11-.58.17-.86.17-.58,0-1.05-.2-1.41-.6-.36-.4-.54-1.01-.54-1.81,0-.75.18-1.31.53-1.69.35-.38.83-.57,1.43-.57.39,0,.72.1.99.29.26.19.44.46.54.79l1.36-.25c-.14-.62-.44-1.11-.91-1.47-.47-.35-1.13-.53-1.97-.53-.65,0-1.19.11-1.62.34-.57.29-1.01.71-1.3,1.26-.3.55-.44,1.18-.44,1.88,0,.65.13,1.25.4,1.81.26.55.66.98,1.19,1.28.53.3,1.15.45,1.86.45.56,0,1.11-.11,1.65-.32s.96-.46,1.25-.73v-2.7h-2.95v1.14Z"/>
  <polygon points="106.43 34.62 109.84 34.62 109.84 33.48 106.43 33.48 106.43 31.97 110.09 31.97 110.09 30.82 105.06 30.82 105.06 37.73 110.22 37.73 110.22 36.47 106.43 36.47 106.43 34.62"/>
  <polygon points="119.3 35.36 116.52 30.82 115.19 30.82 115.19 37.73 116.46 37.73 116.46 33.18 119.2 37.73 120.57 37.73 120.57 30.82 119.3 30.82 119.3 35.36"/>
  <path d="M129.59,36.21c-.26.23-.58.35-.94.35-.49,0-.89-.18-1.2-.55-.31-.36-.46-.98-.46-1.83,0-.81.16-1.39.47-1.75s.72-.54,1.22-.54c.36,0,.67.1.93.3.26.2.42.48.5.83l1.36-.32c-.15-.54-.39-.96-.69-1.25-.52-.49-1.19-.74-2.02-.74-.95,0-1.72.31-2.3.94-.58.62-.87,1.5-.87,2.63,0,1.07.29,1.91.87,2.52.58.62,1.32.92,2.22.92.73,0,1.33-.18,1.8-.54s.81-.91,1.02-1.65l-1.33-.42c-.11.5-.3.86-.56,1.09Z"/>
  <polygon points="138.95 33.51 137.35 30.82 135.75 30.82 138.23 34.75 138.23 37.73 139.6 37.73 139.6 34.76 142.09 30.82 140.51 30.82 138.95 33.51"/>
  <path d="M58.97,13.74l2.61,5.95s-.01.05-.04.08l-.04.04c-1.63,2-3.67,3-6.11,3-2.28,0-4.23-.89-5.83-2.66-1.61-1.78-2.41-3.92-2.41-6.44s.8-4.66,2.41-6.44c1.61-1.78,3.55-2.66,5.83-2.66,1.45,0,2.8.39,4.03,1.17s2.22,1.82,2.98,3.11h4.98c-.93-2.62-2.49-4.74-4.67-6.36S58.09.08,55.39.08c-2.31,0-4.45.61-6.42,1.83-1.97,1.22-3.53,2.87-4.67,4.96-1.14,2.09-1.71,4.36-1.71,6.83s.57,4.75,1.71,6.85c1.14,2.1,2.7,3.75,4.67,4.96s4.11,1.81,6.42,1.81c3.03,0,5.72-1.01,8.05-3.03.02,0,.04-.01.06-.04s.03-.04.06-.04l6.8,13.53h5.06l-11.43-23.99h-5.02Z"/>
  <path d="M89.27,16.93c0-2.88-.96-5.33-2.88-7.35-1.92-2.02-4.23-3.03-6.92-3.03s-5.01,1.01-6.92,3.03c-1.92,2.02-2.88,4.47-2.88,7.35s.96,5.33,2.88,7.35c1.92,2.02,4.23,3.03,6.92,3.03s5-1.01,6.92-3.03,2.88-4.47,2.88-7.35ZM73.94,11.41c.29-.44.7-.64,1.17-.71,1.3-.19,3.08.7,4.2.76,1.42.07,3.69-1.29,5.07-.58.15.08.3.18.42.31.06.06.1.13.15.2,1.07,1.48.04,4.44-1.97,4.23-.15-.01-.66-.18-.65-.35,0-.03.03-.08.05-.08h.56c.06,0,.33-.1.4-.13.84-.37,1.19-1.53.89-2.36-.02-.06-.03-.12-.11-.13-.18-.02-.28.37-.65.26-.54-.15-.61-.12-1.16.02-1.52.39-2.34.77-4,.48-.69-.12-2.14-.72-2.71-.58-.2.05-.27.19-.5.05-.18-.11-.34-.43-.46-.05-.22.74-.02,1.61.58,2.1.13.11.54.33.69.33.13,0,.51-.03.6,0,.03,0,.05.05.05.08.02.16-.48.33-.62.34-1.75.21-2.74-1.93-2.33-3.5.07-.25.16-.49.31-.7ZM74.74,22.09c-.18-.36-.19-.78-.18-1,.03-1.25.37-2.44,1.24-3.35.34-.36.94-.75,1.08-1.23.05-.17.04-.41.16-.54.71-.41,1.38-.92,2.08-1.32.08-.05.2-.13.29-.15.13-.02.24.07.35.13.71.4,1.39.92,2.1,1.33.12.12.1.36.16.54.15.48.75.87,1.08,1.23.82.87,1.14,1.94,1.22,3.11.03.07.04.14.02.21.01.28.02.55-.22.91-.24.37-.75,1.92-4.68,1.91-3.93,0-4.53-1.44-4.71-1.8ZM76.76,14.26c-.19,0-.76-.26-.53-.5h1.12l.05.05c.02.27-.41.45-.64.44ZM81.51,13.82l.05-.05h1.12s.08.09.07.14c-.04.17-.43.36-.6.36-.23,0-.66-.17-.64-.44Z"/>
  <polygon points="91.64 27.35 96.11 27.35 96.11 11.05 99.93 11.05 102.1 6.5 91.64 6.5 91.64 27.35"/>
  <rect x="103.87" y="6.42" width="4.51" height="20.85"/>
  <path d="M104.83,4.94c.4.23.85.35,1.34.35.7,0,1.31-.26,1.83-.78.52-.52.78-1.13.78-1.85s-.26-1.33-.78-1.85c-.52-.52-1.13-.78-1.85-.78s-1.33.26-1.85.78c-.52.52-.78,1.14-.78,1.87,0,.47.12.9.35,1.3.23.4.55.72.95.95Z"/>
  <rect x="111.71" y=".12" width="4.47" height="27.23"/>
  <rect x="119.49" y=".12" width="4.47" height="27.23"/>
  <path d="M140.4,8.21c-1.13-1.14-2.5-1.71-4.1-1.71h-8l-2.15,4.55h10.15c.36,0,.67.12.91.37.25.25.37.54.37.88v.47h-4.16c-2,0-3.71.71-5.13,2.14-1.43,1.43-2.14,3.14-2.14,5.15s.71,3.72,2.14,5.13c1.43,1.41,3.14,2.12,5.13,2.12,1.5,0,2.89-.41,4.16-1.24v1.24h4.51v-15.01c0-1.58-.56-2.94-1.69-4.08ZM137.07,19.16c-.18.58-.42,1.17-.72,1.75-.3.58-.7,1.04-1.21,1.38-.51.34-1.08.51-1.73.51-.75,0-1.4-.27-1.95-.82s-.82-1.19-.82-1.95.27-1.39.82-1.93c.54-.53,1.19-.8,1.95-.8h4.04c-.08.65-.21,1.26-.39,1.85Z"/>
  <path d="M79.8,17.13c.17-.09.74-.54.9-.69.18-.16.29-.29.14-.54-.06-.1-.22-.19-.33-.18-.13.01-.82.35-.87.46-.03.08-.03.76-.02.88.02.14.06.14.18.08Z"/>
  <path d="M79.12,17.15h.13s.03-.06.03-.1c.01-.12.01-.8-.02-.88-.05-.12-.78-.47-.92-.46-.1,0-.23.09-.28.18-.15.25-.03.37.14.54.28.26.64.44.91.71Z"/>
  <path d="M75.88,20.84s-.06.11-.03.16c.05.08.83.4.97.46,1.9.71,4.07.69,5.94-.14.14-.06.47-.2.58-.29.07-.05.07-.16,0-.18h-7.45Z"/>
  <path d="M43.67,27.26c-2.05-1.29-3.21-3.35-4.43-5.52-2.27-4.03-4.83-8.59-13.68-8.86-.15,0-.5,0-.77,0-.23,0-.45-.11-.6-.29-1.37-1.63-3.01-2.91-5.07-3.59-.49-.16-1-.28-1.52-.35-.25-.04-.47-.19-.58-.41-2.11-4.17-5.12-6.23-7-7.17C7.95.02,6.41-.25,5.3.23c-.67.29-1.14.83-1.37,1.57-.06.2-.3.45-.56.72-.47.5-1.12,1.19-1.37,2.27-.28,1.25,0,3,.16,3.87C-.24,10.67,0,14.14.01,14.29c0,.11.04.23.1.33.85,1.5,2.54,2.28,2.61,2.31.21.09.45.09.66,0,.1-.05.21-.09.32-.14-.71,1.5-1.14,3.09-1.24,4.7-.19,2.9.63,5.77,2.43,8.51.24.36.73.47,1.09.23.36-.24.47-.73.23-1.09-2.63-4-2.9-8.34-.85-12.16.11-.21.36-.31.58-.23,1.03.39,2.24,1.43,3.58,3.68l.24.4c.55.91,1.09,1.83,1.69,2.72.14.21.09.49-.11.65-.35.26-.72.44-1.11.53-1.45.33-2.84-.63-3.1-.83-.35-.26-.84-.19-1.1.16-.26.35-.19.84.16,1.1.29.22,1.03.72,2,1,.24.07.39.32.32.57-.08.3-.16.64-.26,1.01-.5,2.06-1.07,5.02-1.21,8.02-.01.25-.22.46-.47.46-.7,0-2.01,0-2.66,0-.23,0-.42-.16-.46-.39-.25-1.4-.6-4.13-.24-7.01.05-.43-.25-.83-.69-.88-.43-.05-.83.25-.88.69-.55,4.45.44,8.41.48,8.57.09.35.4.59.76.59h4.92c.44,0,.79-.36.79-.79,0-3.25.65-6.63,1.19-8.89.17-.71.33-1.28.44-1.68.02-.06.07-.11.14-.12,0,0,0,0,0,0,.1-.02.2.06.2.17.15,8.21,1.67,10.82,1.74,10.94.14.24.4.38.68.38h4.92c.36,0,.68-.24.77-.62.03-.13.02-.27-.01-.39-.73-2.71-.12-5.29.34-6.64.07-.2.28-.31.48-.26.48.13.98.25,1.51.33.62.1,1.23.15,1.83.15,2.66,0,5.13-.92,7.15-2.07.22-.12.5-.05.63.16.38.61.77,1.16,1.2,1.64.12.13.16.32.1.48-.79,2.15-1.99,4.31-3.78,5.57-.08.05-.17.08-.26.08h-2.28c-.35,0-.58-.36-.43-.67.35-.75.72-1.72,1.02-2.96.1-.42-.16-.85-.58-.95-.42-.1-.85.16-.95.58-.73,3.01-1.88,4.23-1.89,4.24-.28.29-.3.77,0,1.09.16.17.38.25.61.25h4.88c.14,0,.29-.04.41-.11,2.05-1.27,3.44-3.43,4.38-5.66.12-.28.47-.38.72-.2,1.54,1.12,3.08,1.77,4.06,2.09.21.07.34.27.32.48l-.2,2.52c-.02.22.06.44.21.6.15.16.36.25.58.25h4.92c.35,0,.66-.23.76-.57.07-.25,1.77-6.19-.43-9.71-.07-.11-.16-.2-.27-.26ZM5.24,14.28c-.1.13-.2.27-.29.4-.13.19-.34.3-.56.33-.43.05-.86.16-1.3.33-.39-.22-1.07-.68-1.5-1.34,0-.67.1-3.14,1.91-4.36.27-.18.4-.52.32-.84-.16-.65-.52-2.58-.27-3.66.15-.66.55-1.08.97-1.53.37-.39.75-.79.92-1.34.12-.39.33-.52.48-.58.37-.16,1.3-.26,3.39.78,1.56.78,3.98,2.43,5.85,5.66.11.2-.01.45-.24.47-3.55.39-7.22,2.45-9.69,5.69ZM11.12,20.02l-.24-.4c-1.23-2.05-2.52-3.42-3.88-4.11-.29-.15-.36-.47-.15-.72,2.32-2.79,5.62-4.5,8.73-4.67.34-.02.65.19.77.5.29.75.54,1.55.76,2.42.11.45.58.71,1.03.55.39-.14.6-.56.5-.96-.16-.63-.33-1.22-.53-1.79-.08-.24.14-.48.39-.4.04.01.08.03.12.04,1.29.42,2.4,1.14,3.38,2.07.19.18.09.49-.17.54-4.84.87-6.53,3.99-7.9,6.93-.05.12-.52,1.09-.87,1.8-.16.33-.63.36-.82.05-.38-.6-.75-1.22-1.13-1.85ZM16.83,35.68c.04.28-.18.54-.47.54h-2.55c-.2,0-.38-.13-.45-.32-.43-1.23-1.18-4.24-1.23-10.12,0-.13.06-.25.17-.33,0,0,.01-.01.02-.02.17-.13.42-.11.56.06,1.19,1.43,2.59,2.69,4.43,3.58.18.09.27.3.2.49-.45,1.29-1.02,3.55-.68,6.12ZM29.23,26.91c-2.28,1.29-5.13,2.23-7.99,1.75-3.46-.57-5.63-2.27-7.35-4.43-.12-.15-.13-.36-.04-.53.28-.48.73-1.31.82-1.51.15-.32.3-.64.45-.96,1.47-3.2,2.87-6.24,8.07-6.72.29-.03.57.11.73.35,1.57,2.29,2.76,5.1,3.86,7.72.55,1.3,1.08,2.56,1.64,3.72.11.23.03.5-.19.62ZM32.71,27.84c-.06.27-.42.33-.57.1-.1-.16-.21-.32-.31-.49-.08-.14-.04-.32.09-.42.42-.31.8-.61,1.15-.91-.09.52-.21,1.09-.36,1.71ZM43.09,35.84c-.05.22-.24.37-.46.37h-2.56c-.28,0-.49-.24-.47-.51l.17-2.18c.03-.39-.23-.75-.62-.83-.03,0-2.73-.62-5.11-2.62-.14-.12-.2-.32-.14-.5.85-2.88,1.04-5.36,1.06-5.56,0-.02,0-.04,0-.05,0-.03,0-.06,0-.09,0-.03,0-.05-.01-.07,0-.03,0-.05-.02-.08,0-.02-.02-.05-.03-.07-.01-.02-.02-.05-.03-.07-.01-.02-.03-.04-.04-.06-.01-.02-.03-.04-.04-.06-.02-.02-.04-.04-.06-.07-.01-.01-.02-.03-.04-.04,0,0,0,0,0,0-.03-.02-.06-.04-.08-.06-.02,0-.03-.02-.05-.03-.02-.01-.05-.02-.07-.03-.02,0-.05-.02-.07-.03-.02,0-.04,0-.06-.01-.03,0-.06-.01-.1-.02,0,0,0,0,0,0-.02,0-.04,0-.06,0-.03,0-.06,0-.09,0-.03,0-.05,0-.08.01-.02,0-.05,0-.07.02-.02,0-.04.02-.07.03-.03.01-.05.02-.07.03-.02.01-.04.02-.06.04-.02.02-.05.03-.07.05-.02.02-.04.03-.05.05-.02.02-.03.03-.05.05-.47.57-1.21,1.29-2.14,2.01-.24.18-.59.1-.72-.18-.49-1.04-.97-2.17-1.46-3.33-.99-2.34-2.03-4.82-3.36-7-.13-.22.04-.49.29-.48,7.43.42,9.51,4.13,11.71,8.03,1.24,2.21,2.53,4.49,4.83,6,1.26,2.2.75,5.68.4,7.34Z"/>
</svg>